<?xml version="1.0" standalone="no"?>
<!DOCTYPE svg PUBLIC "-//W3C//DTD SVG 20010904//EN"
 "http://www.w3.org/TR/2001/REC-SVG-20010904/DTD/svg10.dtd">
<svg version="1.0" xmlns="http://www.w3.org/2000/svg"
 width="500.000000pt" height="500.000000pt" viewBox="0 0 500.000000 500.000000"
 preserveAspectRatio="xMidYMid meet">
<metadata>
Created by potrace 1.14, written by Peter Selinger 2001-2017
</metadata>
<g transform="translate(0.000000,500.000000) scale(0.100000,-0.100000)"
fill="#000000" stroke="none">
<path d="M2239 4896 c-2 -2 -33 -6 -69 -10 -36 -3 -80 -8 -97 -11 -107 -15
-172 -27 -198 -35 -16 -5 -42 -11 -57 -14 -15 -2 -66 -16 -112 -31 -486 -148
-921 -441 -1212 -817 -135 -174 -182 -251 -270 -433 -111 -231 -164 -411 -210
-710 -12 -82 -12 -421 2 -527 50 -408 205 -787 456 -1119 380 -500 966 -837
1607 -925 25 -3 57 -8 71 -11 48 -9 425 -11 510 -2 630 65 1188 340 1588 785
30 32 64 70 77 84 37 42 148 200 199 283 73 121 189 366 201 427 2 8 4 16 5
18 2 1 3 5 4 10 1 4 12 39 24 77 60 197 89 403 89 635 0 85 -3 187 -8 225 -17
138 -20 160 -25 178 -3 11 -7 29 -9 40 -16 127 -98 366 -190 552 -167 339
-364 575 -707 850 -42 34 -227 151 -301 190 -253 134 -586 243 -832 271 -27 3
-63 8 -80 11 -35 5 -451 14 -456 9z"/>
</g>
</svg>
